<svg width="140" height="28" viewBox="0 0 140 28" fill="none" xmlns="http://www.w3.org/2000/svg">
<path d="M131.932 7.96993C131.775 9.04504 131.19 10.02 130.38 10.7286C129.57 11.4367 128.534 11.8703 127.467 11.8789H127.459H127.451C125.317 11.8703 123.834 10.1206 124.156 7.96993C124.312 6.89482 124.889 5.91984 125.699 5.21127C126.509 4.50312 127.545 4.06999 128.611 4.06139H128.62H128.628C128.712 4.06139 128.795 4.06139 128.879 4.06999L128.579 6.11965C128.495 6.10332 128.411 6.09516 128.32 6.09516C127.295 6.10332 126.339 6.93694 126.181 7.96993C126.031 8.99519 126.742 9.83697 127.767 9.83697C128.478 9.83697 129.148 9.42833 129.547 8.83835H128.177L128.427 7.15694H131.963L131.972 7.42808C131.978 7.60297 131.959 7.78688 131.932 7.96993ZM136.32 11.5931L138.041 0.0587502H123.366L120.789 17.3597H124.469L123.943 20.9284H127.642L123.571 23.4528L122.908 27.9419H137.583L139.999 11.5931H136.32Z" fill="#FFE743"/>
<path d="M13.3649 16.1443L18.273 16.1701L17.756 19.5991L17.637 19.6897C15.5246 21.3149 13.3482 21.9779 10.1254 21.9779C5.46665 21.9779 2.76427 19.141 3.40109 14.9184C4.04778 10.6304 7.52405 7.8597 12.2555 7.8597C15.5921 7.8597 17.588 8.70793 19.0937 10.7795L21.8618 9.40232C20.0356 6.47049 17.1428 5.10276 12.7831 5.10276C6.20186 5.10276 0.996494 9.13892 0.124636 14.9184C-0.760973 20.7902 3.13553 24.7348 9.82121 24.7348C12.8888 24.7348 15.192 24.092 17.5231 22.5846L17.915 22.3315L18.1896 24.4603H20.1881L21.8743 13.2829H12.5378L13.3649 16.1443Z" fill="white"/>
<path d="M104.855 13.5225L98.588 12.8294C96.9551 12.6502 95.2355 12.3116 95.5006 10.5533C95.7846 8.67119 97.8644 7.75636 101.859 7.75636C105.172 7.75636 107.454 8.34762 109.673 9.79141L111.562 7.56815C109.125 5.84162 106.326 5.10254 102.26 5.10254C97.8231 5.10254 92.8653 6.54375 92.2551 10.5881C91.806 13.565 93.5807 15.1764 97.8386 15.6594L104.474 16.3521C105.911 16.4908 107.787 16.9102 107.481 18.9401C107.176 20.9601 104.648 22.1186 100.545 22.1186C97.011 22.1186 94.3933 21.3752 91.8391 19.6392L89.9558 21.9923C92.6023 23.9147 95.5002 24.7372 99.5943 24.7372C106.062 24.7372 110.094 22.599 110.656 18.8709C111.116 15.8257 109.163 14.0265 104.855 13.5225Z" fill="white"/>
<path d="M31.0647 16.1061H42.3069L42.7237 13.344H30.2706L31.0647 16.1061Z" fill="white"/>
<path d="M24.7631 24.4601H43.0472L43.4747 21.6241H28.3605L29.6114 13.3442H29.6092L30.3805 8.2338H44.9392L45.3611 5.43517H27.633L24.7631 24.4601Z" fill="white"/>
<path d="M46.4262 24.4601H64.7103L65.1378 21.6241H50.024L51.2753 13.3442H51.2732L52.044 8.2338H66.6022L67.0246 5.43517H49.2966L46.4262 24.4601Z" fill="white"/>
<path d="M52.7279 16.1061H63.9701L64.3869 13.344H51.9343L52.7279 16.1061Z" fill="white"/>
<path d="M90.7029 5.43501H87.115L80.5178 13.3174H73.5507L74.3551 16.116H80.2076L84.6532 24.4599H88.3413L82.7656 14.7191L90.7029 5.43501Z" fill="white"/>
<path d="M70.9599 5.43501L68.09 24.4599H71.222L74.092 5.43501H70.9599Z" fill="white"/>
</svg>
